<mxfile host="app.diagrams.net" agent="Mozilla/5.0 (Windows NT 10.0; Win64; x64) AppleWebKit/537.36 (KHTML, like Gecko) Chrome/130.0.0.0 Safari/537.36" version="24.8.0">
  <diagram name="Página-1" id="RQgZO_2jFO0NHsbEA9rn">
    <mxGraphModel dx="1267" dy="586" grid="1" gridSize="10" guides="1" tooltips="1" connect="1" arrows="1" fold="1" page="1" pageScale="1" pageWidth="827" pageHeight="1169" math="0" shadow="0">
      <root>
        <mxCell id="0" />
        <mxCell id="1" parent="0" />
        <mxCell id="pKdVi4OjSg31vg11PNRq-1" value="RECINTE" style="swimlane;childLayout=stackLayout;horizontal=1;startSize=50;horizontalStack=0;rounded=1;fontSize=14;fontStyle=0;strokeWidth=2;resizeParent=0;resizeLast=1;shadow=0;dashed=0;align=center;arcSize=4;whiteSpace=wrap;html=1;" vertex="1" parent="1">
          <mxGeometry x="190" y="85" width="160" height="150" as="geometry" />
        </mxCell>
        <mxCell id="pKdVi4OjSg31vg11PNRq-2" value="+&lt;u&gt;Nom&lt;/u&gt;&lt;br&gt;+Extensio escenari&lt;div&gt;+Extensio acampada&lt;br&gt;+Aforament maxim&lt;/div&gt;&lt;div&gt;+Lavabos&lt;/div&gt;&lt;div&gt;+Cobert&lt;/div&gt;" style="align=left;strokeColor=none;fillColor=none;spacingLeft=4;fontSize=12;verticalAlign=top;resizable=0;rotatable=0;part=1;html=1;" vertex="1" parent="pKdVi4OjSg31vg11PNRq-1">
          <mxGeometry y="50" width="160" height="100" as="geometry" />
        </mxCell>
        <mxCell id="pKdVi4OjSg31vg11PNRq-3" value="GRUP" style="swimlane;childLayout=stackLayout;horizontal=1;startSize=50;horizontalStack=0;rounded=1;fontSize=14;fontStyle=0;strokeWidth=2;resizeParent=0;resizeLast=1;shadow=0;dashed=0;align=center;arcSize=4;whiteSpace=wrap;html=1;" vertex="1" parent="1">
          <mxGeometry x="730" y="245" width="160" height="110" as="geometry" />
        </mxCell>
        <mxCell id="pKdVi4OjSg31vg11PNRq-4" value="+&lt;u&gt;Nom&lt;/u&gt;&lt;br&gt;+Pais&lt;br&gt;+Components" style="align=left;strokeColor=none;fillColor=none;spacingLeft=4;fontSize=12;verticalAlign=top;resizable=0;rotatable=0;part=1;html=1;" vertex="1" parent="pKdVi4OjSg31vg11PNRq-3">
          <mxGeometry y="50" width="160" height="60" as="geometry" />
        </mxCell>
        <mxCell id="pKdVi4OjSg31vg11PNRq-7" value="CARRER" style="swimlane;childLayout=stackLayout;horizontal=1;startSize=50;horizontalStack=0;rounded=1;fontSize=14;fontStyle=0;strokeWidth=2;resizeParent=0;resizeLast=1;shadow=0;dashed=0;align=center;arcSize=4;whiteSpace=wrap;html=1;" vertex="1" parent="1">
          <mxGeometry y="252.5" width="160" height="95" as="geometry" />
        </mxCell>
        <mxCell id="pKdVi4OjSg31vg11PNRq-8" value="+&lt;u&gt;Codi&lt;/u&gt;&lt;br&gt;+Nom" style="align=left;strokeColor=none;fillColor=none;spacingLeft=4;fontSize=12;verticalAlign=top;resizable=0;rotatable=0;part=1;html=1;" vertex="1" parent="pKdVi4OjSg31vg11PNRq-7">
          <mxGeometry y="50" width="160" height="45" as="geometry" />
        </mxCell>
        <mxCell id="pKdVi4OjSg31vg11PNRq-9" value="PARCEL·LES" style="swimlane;childLayout=stackLayout;horizontal=1;startSize=50;horizontalStack=0;rounded=1;fontSize=14;fontStyle=0;strokeWidth=2;resizeParent=0;resizeLast=1;shadow=0;dashed=0;align=center;arcSize=4;whiteSpace=wrap;html=1;" vertex="1" parent="1">
          <mxGeometry x="190" y="365" width="160" height="120" as="geometry" />
        </mxCell>
        <mxCell id="pKdVi4OjSg31vg11PNRq-10" value="+&lt;u&gt;Numero&lt;/u&gt;&lt;br&gt;+Extensio&lt;br&gt;+Preu" style="align=left;strokeColor=none;fillColor=none;spacingLeft=4;fontSize=12;verticalAlign=top;resizable=0;rotatable=0;part=1;html=1;" vertex="1" parent="pKdVi4OjSg31vg11PNRq-9">
          <mxGeometry y="50" width="160" height="70" as="geometry" />
        </mxCell>
        <mxCell id="pKdVi4OjSg31vg11PNRq-11" value="PERSONES" style="swimlane;childLayout=stackLayout;horizontal=1;startSize=50;horizontalStack=0;rounded=1;fontSize=14;fontStyle=0;strokeWidth=2;resizeParent=0;resizeLast=1;shadow=0;dashed=0;align=center;arcSize=4;whiteSpace=wrap;html=1;" vertex="1" parent="1">
          <mxGeometry x="550" y="350" width="160" height="150" as="geometry" />
        </mxCell>
        <mxCell id="pKdVi4OjSg31vg11PNRq-12" value="&lt;div&gt;-&lt;u&gt;DNI&lt;/u&gt;&lt;div&gt;-&lt;u&gt;Passaport&lt;/u&gt;&lt;/div&gt;&lt;/div&gt;+Usuari&lt;br&gt;+Contrasenya&lt;div&gt;+Mail&lt;/div&gt;&lt;div&gt;-Nom complet&lt;/div&gt;" style="align=left;strokeColor=none;fillColor=none;spacingLeft=4;fontSize=12;verticalAlign=top;resizable=0;rotatable=0;part=1;html=1;" vertex="1" parent="pKdVi4OjSg31vg11PNRq-11">
          <mxGeometry y="50" width="160" height="100" as="geometry" />
        </mxCell>
        <mxCell id="pKdVi4OjSg31vg11PNRq-15" value="CONCERT" style="swimlane;childLayout=stackLayout;horizontal=1;startSize=50;horizontalStack=0;rounded=1;fontSize=14;fontStyle=0;strokeWidth=2;resizeParent=0;resizeLast=1;shadow=0;dashed=0;align=center;arcSize=4;whiteSpace=wrap;html=1;" vertex="1" parent="1">
          <mxGeometry x="550" y="105" width="160" height="110" as="geometry" />
        </mxCell>
        <mxCell id="pKdVi4OjSg31vg11PNRq-16" value="&lt;div&gt;&lt;span style=&quot;background-color: initial;&quot;&gt;+&lt;/span&gt;&lt;u style=&quot;background-color: initial;&quot;&gt;Hora&lt;/u&gt;&lt;/div&gt;+Preu&lt;div&gt;+Substitut&lt;/div&gt;" style="align=left;strokeColor=none;fillColor=none;spacingLeft=4;fontSize=12;verticalAlign=top;resizable=0;rotatable=0;part=1;html=1;" vertex="1" parent="pKdVi4OjSg31vg11PNRq-15">
          <mxGeometry y="50" width="160" height="60" as="geometry" />
        </mxCell>
        <mxCell id="pKdVi4OjSg31vg11PNRq-18" style="rounded=0;orthogonalLoop=1;jettySize=auto;html=1;startArrow=none;startFill=0;endArrow=ERone;endFill=0;endSize=15;" edge="1" parent="1" source="pKdVi4OjSg31vg11PNRq-17" target="pKdVi4OjSg31vg11PNRq-1">
          <mxGeometry relative="1" as="geometry" />
        </mxCell>
        <mxCell id="pKdVi4OjSg31vg11PNRq-19" style="rounded=0;orthogonalLoop=1;jettySize=auto;html=1;startArrow=none;startFill=0;endArrow=ERone;endFill=0;endSize=15;" edge="1" parent="1" source="pKdVi4OjSg31vg11PNRq-17" target="pKdVi4OjSg31vg11PNRq-15">
          <mxGeometry relative="1" as="geometry" />
        </mxCell>
        <mxCell id="pKdVi4OjSg31vg11PNRq-17" value="tenir" style="shape=rhombus;perimeter=rhombusPerimeter;whiteSpace=wrap;html=1;align=center;" vertex="1" parent="1">
          <mxGeometry x="390" y="130" width="120" height="60" as="geometry" />
        </mxCell>
        <mxCell id="pKdVi4OjSg31vg11PNRq-21" style="rounded=0;orthogonalLoop=1;jettySize=auto;html=1;startArrow=none;startFill=0;endArrow=ERone;endFill=0;endSize=15;strokeWidth=1;" edge="1" parent="1" source="pKdVi4OjSg31vg11PNRq-20" target="pKdVi4OjSg31vg11PNRq-15">
          <mxGeometry relative="1" as="geometry" />
        </mxCell>
        <mxCell id="pKdVi4OjSg31vg11PNRq-22" style="rounded=0;orthogonalLoop=1;jettySize=auto;html=1;startArrow=none;startFill=0;endArrow=ERone;endFill=0;endSize=15;jumpSize=6;" edge="1" parent="1" target="pKdVi4OjSg31vg11PNRq-3">
          <mxGeometry relative="1" as="geometry">
            <mxPoint x="810" y="186" as="sourcePoint" />
            <mxPoint x="810" y="236" as="targetPoint" />
          </mxGeometry>
        </mxCell>
        <mxCell id="pKdVi4OjSg31vg11PNRq-20" value="actuar" style="shape=rhombus;perimeter=rhombusPerimeter;whiteSpace=wrap;html=1;align=center;" vertex="1" parent="1">
          <mxGeometry x="750" y="130" width="120" height="60" as="geometry" />
        </mxCell>
        <mxCell id="pKdVi4OjSg31vg11PNRq-28" style="rounded=0;orthogonalLoop=1;jettySize=auto;html=1;entryX=0.5;entryY=0;entryDx=0;entryDy=0;startArrow=none;startFill=0;endArrow=ERone;endFill=0;endSize=15;" edge="1" parent="1" source="pKdVi4OjSg31vg11PNRq-26" target="pKdVi4OjSg31vg11PNRq-9">
          <mxGeometry relative="1" as="geometry" />
        </mxCell>
        <mxCell id="pKdVi4OjSg31vg11PNRq-52" style="rounded=0;orthogonalLoop=1;jettySize=auto;html=1;endArrow=ERone;endFill=0;endSize=15;" edge="1" parent="1" source="pKdVi4OjSg31vg11PNRq-26" target="pKdVi4OjSg31vg11PNRq-1">
          <mxGeometry relative="1" as="geometry" />
        </mxCell>
        <mxCell id="pKdVi4OjSg31vg11PNRq-26" value="dividir" style="shape=rhombus;perimeter=rhombusPerimeter;whiteSpace=wrap;html=1;align=center;" vertex="1" parent="1">
          <mxGeometry x="210" y="270" width="120" height="60" as="geometry" />
        </mxCell>
        <mxCell id="pKdVi4OjSg31vg11PNRq-31" style="rounded=0;orthogonalLoop=1;jettySize=auto;html=1;endArrow=ERone;endFill=0;endSize=15;" edge="1" parent="1" source="pKdVi4OjSg31vg11PNRq-30" target="pKdVi4OjSg31vg11PNRq-9">
          <mxGeometry relative="1" as="geometry" />
        </mxCell>
        <mxCell id="pKdVi4OjSg31vg11PNRq-32" style="rounded=0;orthogonalLoop=1;jettySize=auto;html=1;endArrow=circle;endFill=0;" edge="1" parent="1" source="pKdVi4OjSg31vg11PNRq-30" target="pKdVi4OjSg31vg11PNRq-11">
          <mxGeometry relative="1" as="geometry" />
        </mxCell>
        <mxCell id="pKdVi4OjSg31vg11PNRq-30" value="llogar" style="shape=rhombus;perimeter=rhombusPerimeter;whiteSpace=wrap;html=1;align=center;" vertex="1" parent="1">
          <mxGeometry x="390" y="395" width="120" height="60" as="geometry" />
        </mxCell>
        <mxCell id="pKdVi4OjSg31vg11PNRq-53" style="edgeStyle=orthogonalEdgeStyle;rounded=0;orthogonalLoop=1;jettySize=auto;html=1;endArrow=circle;endFill=0;endSize=6;" edge="1" parent="1" source="pKdVi4OjSg31vg11PNRq-33" target="pKdVi4OjSg31vg11PNRq-7">
          <mxGeometry relative="1" as="geometry" />
        </mxCell>
        <mxCell id="pKdVi4OjSg31vg11PNRq-54" style="edgeStyle=orthogonalEdgeStyle;rounded=0;orthogonalLoop=1;jettySize=auto;html=1;endArrow=ERone;endFill=0;endSize=15;" edge="1" parent="1" source="pKdVi4OjSg31vg11PNRq-33" target="pKdVi4OjSg31vg11PNRq-9">
          <mxGeometry relative="1" as="geometry" />
        </mxCell>
        <mxCell id="pKdVi4OjSg31vg11PNRq-33" value="estructurar" style="shape=rhombus;perimeter=rhombusPerimeter;whiteSpace=wrap;html=1;align=center;" vertex="1" parent="1">
          <mxGeometry x="20" y="395" width="120" height="60" as="geometry" />
        </mxCell>
        <mxCell id="pKdVi4OjSg31vg11PNRq-39" value="ASSITENT" style="swimlane;childLayout=stackLayout;horizontal=1;startSize=50;horizontalStack=0;rounded=1;fontSize=14;fontStyle=0;strokeWidth=2;resizeParent=0;resizeLast=1;shadow=0;dashed=0;align=center;arcSize=4;whiteSpace=wrap;html=1;" vertex="1" parent="1">
          <mxGeometry x="-190" y="118.75" width="160" height="82.5" as="geometry" />
        </mxCell>
        <mxCell id="pKdVi4OjSg31vg11PNRq-40" value="+&lt;u&gt;Nom&lt;/u&gt;" style="align=left;strokeColor=none;fillColor=none;spacingLeft=4;fontSize=12;verticalAlign=top;resizable=0;rotatable=0;part=1;html=1;" vertex="1" parent="pKdVi4OjSg31vg11PNRq-39">
          <mxGeometry y="50" width="160" height="32.5" as="geometry" />
        </mxCell>
        <mxCell id="pKdVi4OjSg31vg11PNRq-45" style="rounded=0;orthogonalLoop=1;jettySize=auto;html=1;endArrow=circle;endFill=0;" edge="1" parent="1" source="pKdVi4OjSg31vg11PNRq-44" target="pKdVi4OjSg31vg11PNRq-1">
          <mxGeometry relative="1" as="geometry" />
        </mxCell>
        <mxCell id="pKdVi4OjSg31vg11PNRq-46" style="rounded=0;orthogonalLoop=1;jettySize=auto;html=1;endArrow=circle;endFill=0;" edge="1" parent="1" source="pKdVi4OjSg31vg11PNRq-44" target="pKdVi4OjSg31vg11PNRq-39">
          <mxGeometry relative="1" as="geometry" />
        </mxCell>
        <mxCell id="pKdVi4OjSg31vg11PNRq-44" value="accedir" style="shape=associativeEntity;whiteSpace=wrap;html=1;align=center;" vertex="1" parent="1">
          <mxGeometry x="20" y="130" width="120" height="60" as="geometry" />
        </mxCell>
        <mxCell id="pKdVi4OjSg31vg11PNRq-49" style="rounded=0;orthogonalLoop=1;jettySize=auto;html=1;entryX=0.25;entryY=0;entryDx=0;entryDy=0;endArrow=none;endFill=0;" edge="1" parent="1" source="pKdVi4OjSg31vg11PNRq-47" target="pKdVi4OjSg31vg11PNRq-44">
          <mxGeometry relative="1" as="geometry" />
        </mxCell>
        <mxCell id="pKdVi4OjSg31vg11PNRq-47" value="Hora Entrada" style="ellipse;whiteSpace=wrap;html=1;align=center;" vertex="1" parent="1">
          <mxGeometry x="-20" y="45" width="100" height="40" as="geometry" />
        </mxCell>
        <mxCell id="pKdVi4OjSg31vg11PNRq-50" style="rounded=0;orthogonalLoop=1;jettySize=auto;html=1;entryX=0.75;entryY=0;entryDx=0;entryDy=0;endArrow=none;endFill=0;" edge="1" parent="1" source="pKdVi4OjSg31vg11PNRq-48" target="pKdVi4OjSg31vg11PNRq-44">
          <mxGeometry relative="1" as="geometry" />
        </mxCell>
        <mxCell id="pKdVi4OjSg31vg11PNRq-48" value="Hora Sortida" style="ellipse;whiteSpace=wrap;html=1;align=center;" vertex="1" parent="1">
          <mxGeometry x="80" y="45" width="100" height="40" as="geometry" />
        </mxCell>
        <mxCell id="pKdVi4OjSg31vg11PNRq-56" value="&lt;font style=&quot;font-size: 15px;&quot;&gt;N:M&lt;/font&gt;" style="text;strokeColor=none;fillColor=none;spacingLeft=4;spacingRight=4;overflow=hidden;rotatable=0;points=[[0,0.5],[1,0.5]];portConstraint=eastwest;fontSize=12;whiteSpace=wrap;html=1;align=center;" vertex="1" parent="1">
          <mxGeometry x="430" y="100" width="40" height="30" as="geometry" />
        </mxCell>
        <mxCell id="pKdVi4OjSg31vg11PNRq-57" value="&lt;font style=&quot;font-size: 15px;&quot;&gt;1:1&lt;/font&gt;" style="text;strokeColor=none;fillColor=none;spacingLeft=4;spacingRight=4;overflow=hidden;rotatable=0;points=[[0,0.5],[1,0.5]];portConstraint=eastwest;fontSize=12;whiteSpace=wrap;html=1;align=center;" vertex="1" parent="1">
          <mxGeometry x="430" y="365" width="40" height="30" as="geometry" />
        </mxCell>
        <mxCell id="pKdVi4OjSg31vg11PNRq-58" value="&lt;font style=&quot;font-size: 15px;&quot;&gt;N:M&lt;/font&gt;" style="text;strokeColor=none;fillColor=none;spacingLeft=4;spacingRight=4;overflow=hidden;rotatable=0;points=[[0,0.5],[1,0.5]];portConstraint=eastwest;fontSize=12;whiteSpace=wrap;html=1;align=center;" vertex="1" parent="1">
          <mxGeometry x="330" y="285" width="40" height="30" as="geometry" />
        </mxCell>
        <mxCell id="pKdVi4OjSg31vg11PNRq-59" value="&lt;font style=&quot;font-size: 15px;&quot;&gt;1:N&lt;/font&gt;" style="text;strokeColor=none;fillColor=none;spacingLeft=4;spacingRight=4;overflow=hidden;rotatable=0;points=[[0,0.5],[1,0.5]];portConstraint=eastwest;fontSize=12;whiteSpace=wrap;html=1;align=center;" vertex="1" parent="1">
          <mxGeometry x="790" y="100" width="40" height="30" as="geometry" />
        </mxCell>
        <mxCell id="pKdVi4OjSg31vg11PNRq-60" value="&lt;font style=&quot;font-size: 15px;&quot;&gt;N:M&lt;/font&gt;" style="text;strokeColor=none;fillColor=none;spacingLeft=4;spacingRight=4;overflow=hidden;rotatable=0;points=[[0,0.5],[1,0.5]];portConstraint=eastwest;fontSize=12;whiteSpace=wrap;html=1;align=center;" vertex="1" parent="1">
          <mxGeometry x="60" y="455" width="40" height="30" as="geometry" />
        </mxCell>
        <mxCell id="pKdVi4OjSg31vg11PNRq-61" value="&lt;span style=&quot;font-size: 15px;&quot;&gt;1:N&lt;/span&gt;" style="text;strokeColor=none;fillColor=none;spacingLeft=4;spacingRight=4;overflow=hidden;rotatable=0;points=[[0,0.5],[1,0.5]];portConstraint=eastwest;fontSize=12;whiteSpace=wrap;html=1;align=center;" vertex="1" parent="1">
          <mxGeometry x="60" y="190" width="40" height="30" as="geometry" />
        </mxCell>
      </root>
    </mxGraphModel>
  </diagram>
</mxfile>
